<?xml version="1.0" encoding="UTF-8"?>
<svg xmlns="http://www.w3.org/2000/svg" xmlns:xlink="http://www.w3.org/1999/xlink" width="20px" height="14px" viewBox="0 0 20 14" version="1.1">
<g id="surface1">
<path style=" stroke:none;fill-rule:nonzero;fill:rgb(100%,60%,20%);fill-opacity:1;" d="M 1.152344 0 L 18.847656 0 C 19.449219 0.00390625 19.933594 0.5 19.933594 1.105469 L 19.933594 12.894531 C 19.933594 13.503906 19.441406 14 18.84375 14 L 1.152344 14 C 0.554688 13.996094 0.0664062 13.5 0.0664062 12.894531 L 0.0664062 1.105469 C 0.0664062 0.5 0.550781 0.00390625 1.152344 0 Z M 1.152344 0 "/>
<path style=" stroke:none;fill-rule:nonzero;fill:rgb(100%,100%,100%);fill-opacity:1;" d="M 0.0664062 4.667969 L 19.933594 4.667969 L 19.933594 9.332031 L 0.0664062 9.332031 Z M 0.0664062 4.667969 "/>
<path style=" stroke:none;fill-rule:nonzero;fill:rgb(7.058824%,53.333333%,2.745098%);fill-opacity:1;" d="M 0.0664062 9.332031 L 19.933594 9.332031 L 19.933594 12.894531 C 19.933594 13.503906 19.441406 14 18.84375 14 L 1.152344 14 C 0.554688 13.996094 0.0664062 13.5 0.0664062 12.894531 Z M 0.0664062 9.332031 "/>
<path style=" stroke:none;fill-rule:nonzero;fill:rgb(0%,0%,53.333333%);fill-opacity:1;" d="M 11.84375 7 C 11.84375 5.96875 11.019531 5.132812 10 5.132812 C 8.980469 5.132812 8.15625 5.96875 8.15625 7 C 8.15625 8.03125 8.980469 8.867188 10 8.867188 C 11.019531 8.867188 11.84375 8.03125 11.84375 7 Z M 11.84375 7 "/>
<path style=" stroke:none;fill-rule:nonzero;fill:rgb(100%,100%,100%);fill-opacity:1;" d="M 11.613281 7 C 11.613281 6.097656 10.890625 5.367188 10 5.367188 C 9.109375 5.367188 8.386719 6.097656 8.386719 7 C 8.386719 7.902344 9.109375 8.632812 10 8.632812 C 10.890625 8.632812 11.613281 7.902344 11.613281 7 Z M 11.613281 7 "/>
<path style=" stroke:none;fill-rule:nonzero;fill:rgb(0%,0%,53.333333%);fill-opacity:1;" d="M 10.320312 7 C 10.320312 6.820312 10.179688 6.671875 10 6.671875 C 9.820312 6.671875 9.679688 6.816406 9.679688 7 C 9.679688 7.179688 9.820312 7.324219 10 7.324219 C 10.179688 7.324219 10.320312 7.179688 10.320312 7 Z M 10.320312 7 "/>
<path style=" stroke:none;fill-rule:nonzero;fill:rgb(0%,0%,53.333333%);fill-opacity:1;" d="M 11.679688 7.222656 C 11.683594 7.179688 11.652344 7.140625 11.609375 7.132812 C 11.566406 7.125 11.523438 7.160156 11.519531 7.203125 C 11.511719 7.246094 11.542969 7.289062 11.585938 7.292969 C 11.632812 7.300781 11.671875 7.269531 11.679688 7.222656 Z M 11.679688 7.222656 "/>
<path style=" stroke:none;fill-rule:nonzero;fill:rgb(0%,0%,53.333333%);fill-opacity:1;" d="M 10 8.632812 L 10.054688 7.652344 L 10 7.1875 L 9.945312 7.652344 Z M 10 8.632812 "/>
<path style=" stroke:none;fill-rule:nonzero;fill:rgb(0%,0%,0%);fill-opacity:1;" d="M 11.5625 7.65625 C 11.582031 7.617188 11.558594 7.566406 11.519531 7.550781 C 11.480469 7.53125 11.429688 7.554688 11.414062 7.59375 C 11.398438 7.636719 11.417969 7.683594 11.457031 7.699219 C 11.5 7.71875 11.546875 7.699219 11.5625 7.65625 Z M 11.5625 7.65625 "/>
<path style=" stroke:none;fill-rule:nonzero;fill:rgb(0%,0%,0%);fill-opacity:1;" d="M 9.582031 8.578125 L 9.886719 7.644531 L 9.953125 7.179688 L 9.78125 7.617188 Z M 9.582031 8.578125 "/>
<path style=" stroke:none;fill-rule:nonzero;fill:rgb(0%,0%,0%);fill-opacity:1;" d="M 11.34375 8.046875 C 11.371094 8.007812 11.363281 7.957031 11.328125 7.929688 C 11.292969 7.902344 11.242188 7.910156 11.214844 7.945312 C 11.1875 7.980469 11.195312 8.03125 11.230469 8.058594 C 11.265625 8.085938 11.316406 8.078125 11.34375 8.046875 Z M 11.34375 8.046875 "/>
<path style=" stroke:none;fill-rule:nonzero;fill:rgb(0%,0%,0%);fill-opacity:1;" d="M 9.191406 8.414062 L 9.726562 7.59375 L 9.90625 7.164062 L 9.628906 7.539062 Z M 9.191406 8.414062 "/>
<path style=" stroke:none;fill-rule:nonzero;fill:rgb(0%,0%,0%);fill-opacity:1;" d="M 11.03125 8.359375 C 11.066406 8.332031 11.070312 8.28125 11.042969 8.246094 C 11.015625 8.210938 10.96875 8.203125 10.929688 8.230469 C 10.894531 8.257812 10.890625 8.308594 10.917969 8.347656 C 10.945312 8.378906 10.996094 8.390625 11.03125 8.359375 Z M 11.03125 8.359375 "/>
<path style=" stroke:none;fill-rule:nonzero;fill:rgb(0%,0%,0%);fill-opacity:1;" d="M 8.859375 8.15625 L 9.582031 7.5 L 9.867188 7.132812 L 9.503906 7.421875 Z M 8.859375 8.15625 "/>
<path style=" stroke:none;fill-rule:nonzero;fill:rgb(0%,0%,0%);fill-opacity:1;" d="M 10.648438 8.585938 C 10.6875 8.566406 10.710938 8.519531 10.691406 8.480469 C 10.675781 8.4375 10.628906 8.417969 10.585938 8.433594 C 10.546875 8.449219 10.527344 8.5 10.542969 8.542969 C 10.558594 8.582031 10.605469 8.601562 10.648438 8.585938 Z M 10.648438 8.585938 "/>
<path style=" stroke:none;fill-rule:nonzero;fill:rgb(0%,0%,0%);fill-opacity:1;" d="M 8.601562 7.816406 L 9.46875 7.375 L 9.839844 7.09375 L 9.414062 7.277344 Z M 8.601562 7.816406 "/>
<path style=" stroke:none;fill-rule:nonzero;fill:rgb(0%,0%,0%);fill-opacity:1;" d="M 10.222656 8.699219 C 10.265625 8.695312 10.296875 8.652344 10.292969 8.609375 C 10.285156 8.5625 10.246094 8.53125 10.199219 8.539062 C 10.15625 8.542969 10.125 8.585938 10.132812 8.628906 C 10.136719 8.675781 10.175781 8.707031 10.222656 8.699219 Z M 10.222656 8.699219 "/>
<path style=" stroke:none;fill-rule:nonzero;fill:rgb(0%,0%,0%);fill-opacity:1;" d="M 8.441406 7.421875 L 9.390625 7.222656 L 9.820312 7.050781 L 9.363281 7.113281 Z M 8.441406 7.421875 "/>
<path style=" stroke:none;fill-rule:nonzero;fill:rgb(0%,0%,0%);fill-opacity:1;" d="M 9.777344 8.699219 C 9.820312 8.707031 9.863281 8.675781 9.867188 8.628906 C 9.875 8.585938 9.84375 8.542969 9.800781 8.539062 C 9.753906 8.53125 9.714844 8.5625 9.707031 8.609375 C 9.703125 8.652344 9.734375 8.695312 9.777344 8.699219 Z M 9.777344 8.699219 "/>
<path style=" stroke:none;fill-rule:nonzero;fill:rgb(0%,0%,0%);fill-opacity:1;" d="M 8.386719 7 L 9.355469 7.054688 L 9.816406 7 L 9.355469 6.945312 Z M 8.386719 7 "/>
<path style=" stroke:none;fill-rule:nonzero;fill:rgb(0%,0%,0%);fill-opacity:1;" d="M 9.351562 8.585938 C 9.390625 8.601562 9.441406 8.582031 9.457031 8.542969 C 9.472656 8.5 9.453125 8.449219 9.414062 8.433594 C 9.371094 8.417969 9.324219 8.4375 9.308594 8.480469 C 9.292969 8.519531 9.3125 8.566406 9.351562 8.585938 Z M 9.351562 8.585938 "/>
<path style=" stroke:none;fill-rule:nonzero;fill:rgb(0%,0%,0%);fill-opacity:1;" d="M 8.441406 6.578125 L 9.363281 6.886719 L 9.820312 6.953125 L 9.390625 6.777344 Z M 8.441406 6.578125 "/>
<path style=" stroke:none;fill-rule:nonzero;fill:rgb(0%,0%,0%);fill-opacity:1;" d="M 8.96875 8.359375 C 9.003906 8.390625 9.054688 8.382812 9.082031 8.347656 C 9.109375 8.308594 9.101562 8.257812 9.066406 8.230469 C 9.03125 8.203125 8.980469 8.210938 8.953125 8.246094 C 8.929688 8.28125 8.933594 8.332031 8.96875 8.359375 Z M 8.96875 8.359375 "/>
<path style=" stroke:none;fill-rule:nonzero;fill:rgb(0%,0%,0%);fill-opacity:1;" d="M 8.601562 6.183594 L 9.414062 6.722656 L 9.839844 6.90625 L 9.46875 6.625 Z M 8.601562 6.183594 "/>
<path style=" stroke:none;fill-rule:nonzero;fill:rgb(0%,0%,0%);fill-opacity:1;" d="M 8.65625 8.046875 C 8.683594 8.082031 8.734375 8.085938 8.769531 8.058594 C 8.804688 8.03125 8.8125 7.980469 8.785156 7.945312 C 8.757812 7.910156 8.707031 7.902344 8.671875 7.929688 C 8.636719 7.957031 8.628906 8.007812 8.65625 8.046875 Z M 8.65625 8.046875 "/>
<path style=" stroke:none;fill-rule:nonzero;fill:rgb(0%,0%,0%);fill-opacity:1;" d="M 8.859375 5.84375 L 9.503906 6.578125 L 9.867188 6.867188 L 9.582031 6.5 Z M 8.859375 5.84375 "/>
<path style=" stroke:none;fill-rule:nonzero;fill:rgb(0%,0%,0%);fill-opacity:1;" d="M 8.433594 7.65625 C 8.453125 7.699219 8.5 7.71875 8.539062 7.699219 C 8.582031 7.683594 8.601562 7.636719 8.582031 7.59375 C 8.566406 7.554688 8.519531 7.53125 8.476562 7.550781 C 8.4375 7.566406 8.417969 7.613281 8.433594 7.65625 Z M 8.433594 7.65625 "/>
<path style=" stroke:none;fill-rule:nonzero;fill:rgb(0%,0%,0%);fill-opacity:1;" d="M 9.191406 5.585938 L 9.628906 6.460938 L 9.90625 6.835938 L 9.726562 6.40625 Z M 9.191406 5.585938 "/>
<path style=" stroke:none;fill-rule:nonzero;fill:rgb(0%,0%,0%);fill-opacity:1;" d="M 8.320312 7.222656 C 8.328125 7.269531 8.367188 7.300781 8.414062 7.292969 C 8.457031 7.289062 8.488281 7.246094 8.480469 7.203125 C 8.476562 7.160156 8.433594 7.128906 8.390625 7.132812 C 8.347656 7.136719 8.316406 7.179688 8.320312 7.222656 Z M 8.320312 7.222656 "/>
<path style=" stroke:none;fill-rule:nonzero;fill:rgb(0%,0%,0%);fill-opacity:1;" d="M 9.582031 5.421875 L 9.78125 6.382812 L 9.953125 6.820312 L 9.886719 6.355469 Z M 9.582031 5.421875 "/>
<path style=" stroke:none;fill-rule:nonzero;fill:rgb(0%,0%,0%);fill-opacity:1;" d="M 8.320312 6.777344 C 8.316406 6.820312 8.347656 6.859375 8.390625 6.867188 C 8.433594 6.875 8.476562 6.839844 8.480469 6.796875 C 8.488281 6.753906 8.457031 6.710938 8.414062 6.707031 C 8.367188 6.699219 8.328125 6.730469 8.320312 6.777344 Z M 8.320312 6.777344 "/>
<path style=" stroke:none;fill-rule:nonzero;fill:rgb(0%,0%,0%);fill-opacity:1;" d="M 10 5.367188 L 9.945312 6.347656 L 10 6.8125 L 10.054688 6.347656 Z M 10 5.367188 "/>
<path style=" stroke:none;fill-rule:nonzero;fill:rgb(0%,0%,0%);fill-opacity:1;" d="M 8.4375 6.34375 C 8.417969 6.382812 8.441406 6.433594 8.480469 6.449219 C 8.519531 6.464844 8.570312 6.445312 8.585938 6.40625 C 8.601562 6.363281 8.582031 6.316406 8.542969 6.300781 C 8.5 6.28125 8.453125 6.300781 8.4375 6.34375 Z M 8.4375 6.34375 "/>
<path style=" stroke:none;fill-rule:nonzero;fill:rgb(0%,0%,0%);fill-opacity:1;" d="M 10.417969 5.421875 L 10.113281 6.355469 L 10.046875 6.820312 L 10.21875 6.382812 Z M 10.417969 5.421875 "/>
<path style=" stroke:none;fill-rule:nonzero;fill:rgb(0%,0%,0%);fill-opacity:1;" d="M 8.65625 5.957031 C 8.628906 5.992188 8.636719 6.042969 8.671875 6.070312 C 8.707031 6.097656 8.757812 6.09375 8.785156 6.054688 C 8.8125 6.019531 8.804688 5.96875 8.769531 5.941406 C 8.734375 5.914062 8.683594 5.921875 8.65625 5.957031 Z M 8.65625 5.957031 "/>
<path style=" stroke:none;fill-rule:nonzero;fill:rgb(0%,0%,0%);fill-opacity:1;" d="M 10.808594 5.585938 L 10.273438 6.40625 L 10.09375 6.835938 L 10.371094 6.460938 Z M 10.808594 5.585938 "/>
<path style=" stroke:none;fill-rule:nonzero;fill:rgb(0%,0%,0%);fill-opacity:1;" d="M 8.96875 5.640625 C 8.933594 5.667969 8.929688 5.71875 8.957031 5.753906 C 8.984375 5.789062 9.03125 5.796875 9.070312 5.769531 C 9.105469 5.742188 9.109375 5.691406 9.082031 5.652344 C 9.054688 5.617188 9.003906 5.613281 8.96875 5.640625 Z M 8.96875 5.640625 "/>
<path style=" stroke:none;fill-rule:nonzero;fill:rgb(0%,0%,0%);fill-opacity:1;" d="M 11.140625 5.84375 L 10.417969 6.5 L 10.132812 6.867188 L 10.496094 6.578125 Z M 11.140625 5.84375 "/>
<path style=" stroke:none;fill-rule:nonzero;fill:rgb(0%,0%,0%);fill-opacity:1;" d="M 9.351562 5.417969 C 9.3125 5.433594 9.292969 5.480469 9.308594 5.523438 C 9.324219 5.5625 9.371094 5.585938 9.414062 5.566406 C 9.453125 5.550781 9.472656 5.5 9.457031 5.460938 C 9.441406 5.417969 9.394531 5.398438 9.351562 5.417969 Z M 9.351562 5.417969 "/>
<path style=" stroke:none;fill-rule:nonzero;fill:rgb(0%,0%,0%);fill-opacity:1;" d="M 11.398438 6.183594 L 10.53125 6.625 L 10.160156 6.90625 L 10.585938 6.722656 Z M 11.398438 6.183594 "/>
<path style=" stroke:none;fill-rule:nonzero;fill:rgb(0%,0%,0%);fill-opacity:1;" d="M 9.777344 5.300781 C 9.734375 5.304688 9.703125 5.347656 9.707031 5.390625 C 9.714844 5.4375 9.753906 5.46875 9.800781 5.460938 C 9.84375 5.457031 9.875 5.414062 9.867188 5.371094 C 9.863281 5.324219 9.824219 5.292969 9.777344 5.300781 Z M 9.777344 5.300781 "/>
<path style=" stroke:none;fill-rule:nonzero;fill:rgb(0%,0%,0%);fill-opacity:1;" d="M 11.558594 6.578125 L 10.609375 6.777344 L 10.179688 6.953125 L 10.636719 6.886719 Z M 11.558594 6.578125 "/>
<path style=" stroke:none;fill-rule:nonzero;fill:rgb(0%,0%,0%);fill-opacity:1;" d="M 10.222656 5.300781 C 10.179688 5.292969 10.136719 5.324219 10.132812 5.371094 C 10.125 5.414062 10.15625 5.457031 10.199219 5.460938 C 10.246094 5.46875 10.285156 5.4375 10.292969 5.390625 C 10.296875 5.347656 10.265625 5.304688 10.222656 5.300781 Z M 10.222656 5.300781 "/>
<path style=" stroke:none;fill-rule:nonzero;fill:rgb(0%,0%,0%);fill-opacity:1;" d="M 11.613281 7 L 10.644531 6.945312 L 10.183594 7 L 10.644531 7.054688 Z M 11.613281 7 "/>
<path style=" stroke:none;fill-rule:nonzero;fill:rgb(0%,0%,0%);fill-opacity:1;" d="M 10.648438 5.417969 C 10.609375 5.398438 10.558594 5.417969 10.542969 5.460938 C 10.527344 5.5 10.546875 5.550781 10.585938 5.566406 C 10.628906 5.582031 10.675781 5.5625 10.691406 5.523438 C 10.707031 5.480469 10.6875 5.433594 10.648438 5.417969 Z M 10.648438 5.417969 "/>
<path style=" stroke:none;fill-rule:nonzero;fill:rgb(0%,0%,0%);fill-opacity:1;" d="M 11.558594 7.421875 L 10.636719 7.113281 L 10.179688 7.050781 L 10.609375 7.222656 Z M 11.558594 7.421875 "/>
<path style=" stroke:none;fill-rule:nonzero;fill:rgb(0%,0%,0%);fill-opacity:1;" d="M 11.03125 5.640625 C 10.996094 5.609375 10.945312 5.617188 10.917969 5.652344 C 10.890625 5.691406 10.894531 5.742188 10.929688 5.769531 C 10.96875 5.796875 11.015625 5.789062 11.042969 5.753906 C 11.070312 5.71875 11.066406 5.667969 11.03125 5.640625 Z M 11.03125 5.640625 "/>
<path style=" stroke:none;fill-rule:nonzero;fill:rgb(0%,0%,0%);fill-opacity:1;" d="M 11.398438 7.816406 L 10.585938 7.277344 L 10.160156 7.09375 L 10.53125 7.375 Z M 11.398438 7.816406 "/>
<path style=" stroke:none;fill-rule:nonzero;fill:rgb(0%,0%,0%);fill-opacity:1;" d="M 11.34375 5.957031 C 11.316406 5.921875 11.265625 5.914062 11.230469 5.941406 C 11.195312 5.96875 11.1875 6.019531 11.214844 6.054688 C 11.242188 6.09375 11.292969 6.097656 11.328125 6.070312 C 11.363281 6.042969 11.371094 5.992188 11.34375 5.957031 Z M 11.34375 5.957031 "/>
<path style=" stroke:none;fill-rule:nonzero;fill:rgb(0%,0%,0%);fill-opacity:1;" d="M 11.140625 8.15625 L 10.496094 7.421875 L 10.132812 7.132812 L 10.417969 7.5 Z M 11.140625 8.15625 "/>
<path style=" stroke:none;fill-rule:nonzero;fill:rgb(0%,0%,0%);fill-opacity:1;" d="M 11.566406 6.34375 C 11.546875 6.300781 11.5 6.28125 11.460938 6.300781 C 11.417969 6.316406 11.398438 6.363281 11.417969 6.40625 C 11.433594 6.445312 11.480469 6.464844 11.523438 6.449219 C 11.5625 6.433594 11.582031 6.386719 11.566406 6.34375 Z M 11.566406 6.34375 "/>
<path style=" stroke:none;fill-rule:nonzero;fill:rgb(0%,0%,0%);fill-opacity:1;" d="M 10.808594 8.414062 L 10.371094 7.539062 L 10.09375 7.164062 L 10.273438 7.59375 Z M 10.808594 8.414062 "/>
<path style=" stroke:none;fill-rule:nonzero;fill:rgb(0%,0%,0%);fill-opacity:1;" d="M 11.679688 6.777344 C 11.671875 6.730469 11.632812 6.699219 11.585938 6.707031 C 11.542969 6.710938 11.511719 6.753906 11.519531 6.796875 C 11.523438 6.839844 11.566406 6.871094 11.609375 6.867188 C 11.652344 6.863281 11.683594 6.820312 11.679688 6.777344 Z M 11.679688 6.777344 "/>
<path style=" stroke:none;fill-rule:nonzero;fill:rgb(0%,0%,0%);fill-opacity:1;" d="M 10.417969 8.578125 L 10.21875 7.617188 L 10.046875 7.179688 L 10.113281 7.644531 Z M 10.417969 8.578125 "/>
</g>
</svg>
