<?xml version="1.0" encoding="UTF-8"?>
<svg xmlns="http://www.w3.org/2000/svg" xmlns:xlink="http://www.w3.org/1999/xlink" width="20px" height="14px" viewBox="0 0 19 14" version="1.1">
<g id="surface1">
<path style=" stroke:none;fill-rule:nonzero;fill:rgb(80%,0%,0.392157%);fill-opacity:1;" d="M 1.0625 0.148438 L 17.933594 0.148438 C 18.507812 0.148438 18.976562 0.632812 18.976562 1.230469 L 18.976562 12.765625 C 18.976562 13.363281 18.507812 13.847656 17.933594 13.847656 L 1.0625 13.847656 C 0.488281 13.847656 0.0195312 13.359375 0.0195312 12.765625 L 0.0195312 1.230469 C 0.0195312 0.632812 0.488281 0.148438 1.0625 0.148438 Z M 1.0625 0.148438 "/>
<path style=" stroke:none;fill-rule:nonzero;fill:rgb(100%,100%,100%);fill-opacity:1;" d="M 0.0351562 12.945312 L 18.964844 12.945312 C 18.882812 13.460938 18.453125 13.851562 17.9375 13.851562 L 1.0625 13.851562 C 0.546875 13.851562 0.117188 13.460938 0.0351562 12.945312 Z M 0.0351562 12.945312 "/>
<path style=" stroke:none;fill-rule:nonzero;fill:rgb(100%,100%,100%);fill-opacity:1;" d="M 0.0195312 10.96875 L 18.980469 10.96875 L 18.980469 11.957031 L 0.0195312 11.957031 Z M 0.0195312 10.96875 "/>
<path style=" stroke:none;fill-rule:nonzero;fill:rgb(100%,100%,100%);fill-opacity:1;" d="M 0.0195312 8.992188 L 18.980469 8.992188 L 18.980469 9.980469 L 0.0195312 9.980469 Z M 0.0195312 8.992188 "/>
<path style=" stroke:none;fill-rule:nonzero;fill:rgb(100%,100%,100%);fill-opacity:1;" d="M 0.0195312 7.011719 L 18.980469 7.011719 L 18.980469 8 L 0.0195312 8 Z M 0.0195312 7.011719 "/>
<path style=" stroke:none;fill-rule:nonzero;fill:rgb(100%,100%,100%);fill-opacity:1;" d="M 0.0195312 5.035156 L 18.980469 5.035156 L 18.980469 6.023438 L 0.0195312 6.023438 Z M 0.0195312 5.035156 "/>
<path style=" stroke:none;fill-rule:nonzero;fill:rgb(100%,100%,100%);fill-opacity:1;" d="M 0.0195312 3.054688 L 18.980469 3.054688 L 18.980469 4.042969 L 0.0195312 4.042969 Z M 0.0195312 3.054688 "/>
<path style=" stroke:none;fill-rule:nonzero;fill:rgb(100%,100%,100%);fill-opacity:1;" d="M 0.03125 1.078125 L 18.96875 1.078125 C 18.976562 1.128906 18.980469 1.179688 18.980469 1.230469 L 18.980469 2.066406 L 0.0195312 2.066406 L 0.0195312 1.230469 C 0.0195312 1.179688 0.0234375 1.128906 0.03125 1.078125 Z M 0.03125 1.078125 "/>
<path style=" stroke:none;fill-rule:nonzero;fill:rgb(0.392157%,0%,40%);fill-opacity:1;" d="M 12.585938 0.148438 L 12.585938 8 L 0.0195312 8 L 0.0195312 1.230469 C 0.0195312 0.632812 0.488281 0.148438 1.0625 0.148438 Z M 12.585938 0.148438 "/>
<path style=" stroke:none;fill-rule:nonzero;fill:rgb(100%,80%,0%);fill-opacity:1;" d="M 4.742188 1.078125 C 3.164062 1.078125 1.878906 2.40625 1.878906 4.042969 C 1.878906 5.683594 3.164062 7.011719 4.742188 7.011719 C 5.3125 7.011719 5.84375 6.835938 6.292969 6.539062 C 6.03125 6.632812 5.753906 6.683594 5.460938 6.683594 C 4.058594 6.683594 2.917969 5.503906 2.917969 4.050781 C 2.917969 2.597656 4.054688 1.421875 5.460938 1.421875 C 5.769531 1.421875 6.070312 1.480469 6.34375 1.585938 C 5.886719 1.265625 5.335938 1.078125 4.742188 1.078125 Z M 4.742188 1.078125 "/>
<path style=" stroke:none;fill-rule:nonzero;fill:rgb(100%,80%,0%);fill-opacity:1;" d="M 9.492188 5.589844 L 8.289062 4.9375 L 8.644531 6.277344 L 7.835938 5.15625 L 7.585938 6.519531 L 7.335938 5.15625 L 6.527344 6.273438 L 6.890625 4.933594 L 5.679688 5.582031 L 6.578125 4.539062 L 5.210938 4.589844 L 6.46875 4.042969 L 5.210938 3.492188 L 6.582031 3.546875 L 5.683594 2.5 L 6.890625 3.15625 L 6.535156 1.816406 L 7.339844 2.933594 L 7.59375 1.570312 L 7.839844 2.9375 L 8.652344 1.816406 L 8.292969 3.15625 L 9.5 2.507812 L 8.601562 3.550781 L 9.96875 3.5 L 8.710938 4.046875 L 9.96875 4.597656 L 8.601562 4.539062 Z M 9.492188 5.589844 "/>
<path style="fill:none;stroke-width:0.1199;stroke-linecap:butt;stroke-linejoin:miter;stroke:rgb(80%,80%,80%);stroke-opacity:1;stroke-miterlimit:2.6131;" d="M 3.093553 0.0624558 L 52.215074 0.0624558 C 53.886957 0.0624558 55.25176 1.419637 55.25176 3.094223 L 55.25176 35.414832 C 55.25176 37.089418 53.886957 38.446599 52.215074 38.446599 L 3.093553 38.446599 C 1.421669 38.446599 0.0568668 37.078473 0.0568668 35.414832 L 0.0568668 3.094223 C 0.0568668 1.419637 1.421669 0.0624558 3.093553 0.0624558 Z M 3.093553 0.0624558 " transform="matrix(0.343456,0,0,0.356898,0,0.126147)"/>
</g>
</svg>
